<svg xmlns="http://www.w3.org/2000/svg" viewBox="0 0 64 64">
	<rect width="64" height="64" rx="16" fill="#111827"/>
	<path d="M18 44V18h7v20h14v6H18Z" fill="#f8fafc"/>
	<path d="M34 44c-3 0-5.6-.5-7.8-1.6v-6.2c2.4 1.3 5 2 7.8 2 2.5 0 3.8-.7 3.8-2.1 0-.7-.4-1.2-1.1-1.6-.7-.4-2.1-.9-4.2-1.5-2.5-.8-4.3-1.8-5.4-3-1.1-1.2-1.7-2.8-1.7-4.9 0-2.4.9-4.3 2.8-5.7 1.9-1.4 4.5-2.1 7.9-2.1 2.7 0 5.1.5 7.2 1.4v6.1c-2.2-1-4.5-1.5-6.9-1.5-2.3 0-3.5.6-3.5 1.8 0 .6.3 1.1 1 1.5.7.4 2 .8 4 1.5 2.6.8 4.5 1.8 5.7 3 1.2 1.2 1.8 2.9 1.8 5.1 0 2.6-1 4.6-3 6-2 1.5-4.8 2.2-8.4 2.2Z" fill="#f59e0b"/>
</svg>
